<svg width="20" height="20" viewBox="0 0 20 20" fill="none" xmlns="http://www.w3.org/2000/svg">
<circle cx="10" cy="10" r="10" fill="url(#paint0_linear_7005_919)" fill-opacity="0.8"/>
<path d="M9.75555 4.4653C7.09304 4.59208 4.99195 6.80943 5.00002 9.47495C5.00248 10.2868 5.19848 11.0531 5.54422 11.7302L5.01338 14.3069C4.98466 14.4463 5.11038 14.5684 5.24884 14.5356L7.77378 13.9374C8.42247 14.2605 9.1511 14.4471 9.92222 14.4589C12.6436 14.5005 14.9127 12.3397 14.9975 9.61933C15.0884 6.70332 12.6818 4.32594 9.75555 4.4653ZM12.7683 12.2278C12.0289 12.9673 11.0457 13.3745 10 13.3745C9.38769 13.3745 8.80147 13.2371 8.25756 12.9662L7.90593 12.791L6.35788 13.1578L6.68374 11.576L6.5105 11.2367C6.22814 10.6838 6.08498 10.0858 6.08498 9.45948C6.08498 8.41373 6.4922 7.43059 7.23165 6.69112C7.96449 5.95828 8.96368 5.54442 10.0001 5.54442C11.0458 5.54445 12.0289 5.95167 12.7684 6.6911C13.5078 7.43054 13.915 8.41368 13.9151 9.4594C13.915 10.4958 13.5012 11.495 12.7683 12.2278Z" fill="white"/>
<path d="M12.4283 10.5433L11.4598 10.2652C11.3324 10.2286 11.1953 10.2647 11.1025 10.3593L10.8657 10.6006C10.7658 10.7023 10.6143 10.735 10.4821 10.6815C10.024 10.4961 9.06023 9.63924 8.81411 9.21063C8.74311 9.08699 8.75485 8.93242 8.84203 8.8196L9.04881 8.5521C9.12982 8.44729 9.14691 8.30653 9.09334 8.18537L8.68587 7.2638C8.58827 7.04306 8.3062 6.97881 8.12192 7.13466C7.85162 7.36328 7.5309 7.71069 7.49191 8.09556C7.42317 8.77413 7.71419 9.62953 8.81467 10.6566C10.086 11.8432 11.1041 12 11.767 11.8394C12.143 11.7484 12.4434 11.3833 12.6331 11.0844C12.7623 10.8806 12.6603 10.6099 12.4283 10.5433Z" fill="white"/>
<defs>
<linearGradient id="paint0_linear_7005_919" x1="2.47678" y1="0.754716" x2="23.93" y2="22.1622" gradientUnits="userSpaceOnUse">
<stop stop-color="#008DC3"/>
<stop offset="1" stop-color="#004268"/>
</linearGradient>
</defs>
</svg>
