<svg width="37" height="34" viewBox="0 0 37 34" fill="none" xmlns="http://www.w3.org/2000/svg">
<path d="M14.8003 14.7999C18.8888 14.7999 22.2003 11.4884 22.2003 7.39995C22.2003 3.31148 18.8888 0 14.8003 0C10.7119 0 7.40039 3.31148 7.40039 7.39995C7.40039 11.4884 10.7119 14.7999 14.8003 14.7999ZM14.8003 3.69998C16.8353 3.69998 18.5003 5.36497 18.5003 7.39995C18.5003 9.43494 16.8353 11.0999 14.8003 11.0999C12.7654 11.0999 11.1004 9.43494 11.1004 7.39995C11.1004 5.36497 12.7654 3.69998 14.8003 3.69998Z" fill="#0185B9"/>
<path d="M3.69998 25.8999C4.10697 24.5679 9.82344 22.1999 14.7999 22.1999C14.7999 20.9049 15.0404 19.6654 15.4474 18.5184C10.3969 18.3334 0 20.8494 0 25.8999V29.5999H17.6489C16.6869 28.5269 15.9284 27.2874 15.4474 25.8999H3.69998Z" fill="#0185B9"/>
<path d="M32.2454 25.9369C32.9114 24.8454 33.2999 23.5689 33.2999 22.1999C33.2999 18.1114 29.9884 14.7999 25.9 14.7999C21.8115 14.7999 18.5 18.1114 18.5 22.1999C18.5 26.2884 21.8115 29.5998 25.9 29.5998C27.2689 29.5998 28.5454 29.1928 29.6369 28.5453C31.3574 30.2658 32.6339 31.5423 34.3914 33.2998L36.9999 30.6913C34.2249 27.9163 35.5384 29.2113 32.2454 25.9369ZM25.9 25.8999C23.865 25.8999 22.2 24.2349 22.2 22.1999C22.2 20.1649 23.865 18.4999 25.9 18.4999C27.9349 18.4999 29.5999 20.1649 29.5999 22.1999C29.5999 24.2349 27.9349 25.8999 25.9 25.8999Z" fill="#0185B9"/>
</svg>
