<svg width="20" height="20" viewBox="0 0 20 20" fill="none" xmlns="http://www.w3.org/2000/svg">
<ellipse cx="10" cy="9.99479" rx="10" ry="9.99479" fill="url(#paint0_linear_7003_165)" fill-opacity="0.8"/>
<path d="M9.9388 15.98C8.50651 13.6895 6 10.5846 6 7.91233C6 5.59687 7.76695 3.71309 9.9388 3.71309C12.1107 3.71309 13.8776 5.59687 13.8776 7.91233C13.8776 10.5846 11.3711 13.6895 9.9388 15.98Z" fill="white"/>
<path d="M9.9388 9.8208C8.95164 9.8208 8.14844 8.96448 8.14844 7.91205C8.14844 6.85962 8.95164 6.0033 9.9388 6.0033C10.926 6.0033 11.7292 6.85962 11.7292 7.91205C11.7292 8.96448 10.926 9.8208 9.9388 9.8208Z" fill="url(#paint1_linear_7003_165)" fill-opacity="0.8"/>
<defs>
<linearGradient id="paint0_linear_7003_165" x1="2.47678" y1="0.754324" x2="23.9188" y2="22.1619" gradientUnits="userSpaceOnUse">
<stop stop-color="#008DC3"/>
<stop offset="1" stop-color="#004268"/>
</linearGradient>
<linearGradient id="paint1_linear_7003_165" x1="8.59187" y1="9.67674" x2="12.6778" y2="5.85238" gradientUnits="userSpaceOnUse">
<stop stop-color="#008DC3"/>
<stop offset="1" stop-color="#004268"/>
</linearGradient>
</defs>
</svg>
