<svg width="34" height="34" viewBox="0 0 34 34" fill="none" xmlns="http://www.w3.org/2000/svg">
<path d="M16.9986 0.500127C14.4677 0.490124 11.9694 1.07127 9.70275 2.19727C9.55246 2.25791 9.4163 2.34889 9.30276 2.46452C9.18922 2.58016 9.10075 2.71797 9.04288 2.86933C8.985 3.0207 8.95897 3.18238 8.9664 3.34426C8.97383 3.50614 9.01457 3.66475 9.08607 3.81018C9.15757 3.9556 9.2583 4.08473 9.38195 4.18947C9.50561 4.29422 9.64954 4.37234 9.80475 4.41896C9.95997 4.46558 10.1231 4.47969 10.284 4.4604C10.445 4.44112 10.6002 4.38887 10.74 4.3069C12.8971 3.24255 15.2901 2.74592 17.6927 2.86396C20.0952 2.98199 22.428 3.7108 24.4704 4.98148C26.5128 6.25215 28.1974 8.0227 29.3649 10.1257C30.5323 12.2288 31.1441 14.5948 31.1423 17.0001C31.1423 22.7515 28.0543 29.1629 22.8918 29.9643C22.3436 30.0953 21.7732 30.1041 21.2212 29.9901C20.6692 29.876 20.1491 29.6419 19.6977 29.3044C18.672 28.171 18.1268 26.6835 18.1772 25.1558C20.1392 24.8726 21.9336 23.8926 23.2322 22.395C24.5308 20.8973 25.2468 18.9823 25.2491 17.0001V9.92868C25.2491 9.6161 25.1249 9.31633 24.9039 9.0953C24.6829 8.87428 24.3831 8.75011 24.0705 8.75011H20.5345C20.2219 8.75011 19.9221 8.87428 19.7011 9.0953C19.4801 9.31633 19.3559 9.6161 19.3559 9.92868C19.3559 10.2413 19.4801 10.541 19.7011 10.7621C19.9221 10.9831 20.2219 11.1072 20.5345 11.1072H22.8918V17.0001C22.8918 18.563 22.2709 20.0618 21.1657 21.167C20.0605 22.2721 18.5616 22.8929 16.9986 22.8929C15.4356 22.8929 13.9366 22.2721 12.8314 21.167C11.7262 20.0618 11.1053 18.563 11.1053 17.0001V11.1072H13.4626C13.7752 11.1072 14.075 10.9831 14.2961 10.7621C14.5171 10.541 14.6413 10.2413 14.6413 9.92868C14.6413 9.6161 14.5171 9.31633 14.2961 9.0953C14.075 8.87428 13.7752 8.75011 13.4626 8.75011H9.92669C9.6141 8.75011 9.3143 8.87428 9.09326 9.0953C8.87223 9.31633 8.74805 9.6161 8.74805 9.92868V17.0001C8.75037 18.9823 9.46632 20.8973 10.7649 22.395C12.0635 23.8926 13.858 24.8726 15.8199 25.1558C15.9732 27.8665 16.7393 29.8701 18.1065 31.0486C19.1731 31.9398 20.5373 32.3945 21.9253 32.3215C22.3588 32.3219 22.7919 32.2943 23.2218 32.239C29.893 31.2726 33.4996 23.659 33.4996 17.0001C33.4996 12.624 31.7611 8.4272 28.6666 5.33285C25.572 2.23851 21.3749 0.500127 16.9986 0.500127Z" fill="url(#paint0_linear_50_256)" fill-opacity="0.8"/>
<path d="M16.999 0.250977C21.4415 0.251095 25.7024 2.01513 28.8438 5.15625C31.985 8.29743 33.75 12.5578 33.75 17C33.75 20.3704 32.8378 23.9843 31.0762 26.8838C29.3135 29.7849 26.6868 31.9895 23.2578 32.4863L23.2539 32.4873C22.8174 32.5435 22.3776 32.5702 21.9375 32.5703C20.4868 32.6464 19.0611 32.1717 17.9463 31.2402L17.9434 31.2383C16.538 30.0269 15.7649 28.0138 15.584 25.3691C13.6411 25.0412 11.8697 24.0504 10.5762 22.5586C9.23823 21.0156 8.50044 19.0422 8.49805 17V9.92871C8.49805 9.55004 8.64837 9.18681 8.91602 8.91895C9.18394 8.65104 9.54786 8.5 9.92676 8.5H13.4629C13.8417 8.50007 14.2048 8.6511 14.4727 8.91895C14.7405 9.18684 14.8916 9.54988 14.8916 9.92871C14.8916 10.3075 14.7405 10.6706 14.4727 10.9385C14.2048 11.2063 13.8417 11.3574 13.4629 11.3574H11.3555V17C11.3555 18.4965 11.9496 19.932 13.0078 20.9902C14.0661 22.0485 15.5023 22.6426 16.999 22.6426C18.4955 22.6425 19.9311 22.0484 20.9893 20.9902C22.0475 19.932 22.6416 18.4965 22.6416 17V11.3574H20.5342C20.1554 11.3573 19.7923 11.2063 19.5244 10.9385C19.2566 10.6706 19.1055 10.3075 19.1055 9.92871C19.1055 9.5499 19.2566 9.18684 19.5244 8.91895C19.7923 8.65112 20.1554 8.50009 20.5342 8.5H24.0703C24.4492 8.5 24.8131 8.65104 25.0811 8.91895C25.3487 9.18681 25.499 9.55002 25.499 9.92871V17C25.4966 19.0422 24.7589 21.0156 23.4209 22.5586C22.1299 24.0474 20.3631 25.0372 18.4248 25.3672C18.4289 26.7497 18.9404 28.0848 19.8662 29.1172C20.2839 29.4254 20.763 29.64 21.2715 29.7451C21.7876 29.8518 22.3214 29.8442 22.834 29.7217L22.8438 29.7188L22.8535 29.7178C25.3363 29.3323 27.3436 27.5936 28.7373 25.2119C30.1304 22.8313 30.8926 19.8348 30.8926 17L30.8857 16.5576C30.817 14.3478 30.2216 12.1839 29.1465 10.2471C27.9997 8.18121 26.3442 6.44157 24.3379 5.19336C22.3318 3.94539 20.0405 3.22926 17.6807 3.11328C15.3206 2.99733 12.9696 3.48571 10.8506 4.53125L10.8496 4.53027C10.6843 4.62434 10.5024 4.68635 10.3135 4.70898C10.1185 4.73229 9.92044 4.71467 9.73242 4.6582C9.54447 4.60169 9.37047 4.50674 9.2207 4.37988C9.07087 4.25296 8.94799 4.0971 8.86133 3.9209C8.77466 3.74462 8.72581 3.55169 8.7168 3.35547C8.70783 3.15937 8.73948 2.96364 8.80957 2.78027C8.87972 2.5968 8.98641 2.42922 9.12402 2.28906C9.25715 2.15347 9.41667 2.04705 9.5918 1.97363L10.0254 1.76562C12.2098 0.758737 14.5898 0.241533 16.999 0.250977Z" stroke="url(#paint1_linear_50_256)" stroke-opacity="0.8" stroke-width="0.5"/>
<path d="M6.39112 24.0715C5.88551 24.0791 5.38429 24.1666 4.90602 24.3308C3.29033 21.6672 2.59934 18.5448 2.94034 15.4482C3.28134 12.3517 4.63526 9.4544 6.79186 7.20619C6.91242 7.09777 7.00931 6.96565 7.07648 6.81808C7.14365 6.6705 7.17964 6.51066 7.18221 6.34854C7.18478 6.18643 7.15387 6.02553 7.09141 5.8759C7.02895 5.72628 6.93629 5.59115 6.81922 5.47896C6.70215 5.36678 6.5632 5.27996 6.41104 5.22392C6.25888 5.16789 6.0968 5.14385 5.93493 5.15331C5.77306 5.16278 5.61488 5.20553 5.47029 5.27891C5.3257 5.35229 5.1978 5.45471 5.0946 5.57977C2.57015 8.21053 0.98819 11.6033 0.595835 15.2281C0.20348 18.8528 1.02283 22.5055 2.92589 25.6154C2.19819 26.4163 1.76814 27.443 1.70792 28.5234C1.6477 29.6037 1.96097 30.6719 2.59516 31.5486C3.22935 32.4254 4.14585 33.0573 5.19082 33.3383C6.2358 33.6193 7.34563 33.5323 8.33405 33.0919C9.32247 32.6515 10.1293 31.8845 10.6191 30.9197C11.1089 29.9548 11.2519 28.8509 11.0241 27.7931C10.7963 26.7354 10.2115 25.7881 9.36786 25.1105C8.52426 24.4328 7.4732 24.066 6.39112 24.0715ZM6.39112 31.1429C5.92489 31.1429 5.46913 31.0047 5.08147 30.7457C4.69382 30.4867 4.39168 30.1185 4.21326 29.6878C4.03484 29.2571 3.98816 28.7832 4.07912 28.3259C4.17007 27.8687 4.39458 27.4487 4.72426 27.119C5.05393 26.7894 5.47396 26.5649 5.93123 26.4739C6.3885 26.383 6.86247 26.4297 7.29321 26.6081C7.72395 26.7865 8.09211 27.0886 8.35113 27.4762C8.61016 27.8639 8.74841 28.3196 8.74841 28.7858C8.74841 29.4109 8.50005 30.0105 8.05797 30.4525C7.6159 30.8946 7.01631 31.1429 6.39112 31.1429Z" fill="url(#paint2_linear_50_256)" fill-opacity="0.8"/>
<path d="M5.91992 4.90326C6.116 4.8918 6.31275 4.92137 6.49707 4.9892C6.6815 5.05711 6.85029 5.16279 6.99219 5.29877C7.13395 5.43465 7.24659 5.59804 7.32227 5.77924C7.39797 5.96059 7.43573 6.15598 7.43262 6.35248C7.4295 6.54898 7.38513 6.74294 7.30371 6.92181C7.22493 7.09482 7.11221 7.24995 6.97266 7.37885L6.58398 7.80072C4.69117 9.94422 3.50251 12.6239 3.18848 15.4755C2.8607 18.4519 3.50671 21.4512 5.02148 24.0302C5.46459 23.8982 5.92472 23.8282 6.3877 23.8212H6.38965C7.52911 23.8154 8.63608 24.2024 9.52441 24.916C10.4126 25.6295 11.0286 26.6265 11.2686 27.7402C11.5085 28.854 11.3576 30.0171 10.8418 31.0331C10.326 32.049 9.47626 32.8566 8.43555 33.3203C7.39482 33.7839 6.22624 33.8758 5.12598 33.58C4.02562 33.2841 3.0604 32.6184 2.39258 31.6953C1.72481 30.7721 1.39466 29.6473 1.45801 28.5097C1.518 27.4335 1.92652 26.4074 2.61914 25.5859C0.755676 22.4636 -0.0439917 18.8194 0.347656 15.2011C0.745973 11.5214 2.35138 8.07679 4.91406 5.40619C5.03698 5.2612 5.1878 5.14168 5.35742 5.0556C5.53247 4.96683 5.72399 4.91477 5.91992 4.90326ZM7.19727 26.8388C6.81246 26.6795 6.38896 26.6375 5.98047 26.7187C5.57177 26.8 5.19605 27.0012 4.90137 27.2958C4.60666 27.5905 4.40553 27.9662 4.32422 28.3749C4.243 28.7835 4.28498 29.2069 4.44434 29.5917C4.60383 29.9768 4.87416 30.3065 5.2207 30.538C5.56717 30.7694 5.97495 30.8925 6.3916 30.8925C6.95032 30.8924 7.48578 30.6704 7.88086 30.2753C8.27596 29.8802 8.49797 29.3448 8.49805 28.7861C8.49805 28.3694 8.37504 27.9617 8.14355 27.6152C7.912 27.2687 7.58233 26.9983 7.19727 26.8388Z" stroke="url(#paint3_linear_50_256)" stroke-opacity="0.8" stroke-width="0.5"/>
<defs>
<linearGradient id="paint0_linear_50_256" x1="11.8133" y1="1.7011" x2="44.8858" y2="27.3648" gradientUnits="userSpaceOnUse">
<stop stop-color="#008DC3"/>
<stop offset="1" stop-color="#004268"/>
</linearGradient>
<linearGradient id="paint1_linear_50_256" x1="11.8133" y1="1.7011" x2="44.8858" y2="27.3648" gradientUnits="userSpaceOnUse">
<stop stop-color="#008DC3"/>
<stop offset="1" stop-color="#004268"/>
</linearGradient>
<linearGradient id="paint2_linear_50_256" x1="1.81638" y1="6.22107" x2="21.7776" y2="13.6899" gradientUnits="userSpaceOnUse">
<stop stop-color="#008DC3"/>
<stop offset="1" stop-color="#004268"/>
</linearGradient>
<linearGradient id="paint3_linear_50_256" x1="1.81638" y1="6.22107" x2="21.7776" y2="13.6899" gradientUnits="userSpaceOnUse">
<stop stop-color="#008DC3"/>
<stop offset="1" stop-color="#004268"/>
</linearGradient>
</defs>
</svg>
