<svg width="20" height="20" viewBox="0 0 20 20" fill="none" xmlns="http://www.w3.org/2000/svg">
<circle cx="10" cy="10" r="10" fill="url(#paint0_linear_7003_172)" fill-opacity="0.8"/>
<path d="M6.82476 10.9826C7.71628 12.0437 8.78948 12.8792 10.0144 13.4704C10.4807 13.6904 11.1044 13.9515 11.7993 13.9963C11.8424 13.9981 11.8836 14 11.9267 14C12.393 14 12.7676 13.8396 13.0729 13.5095C13.0748 13.5077 13.0785 13.5039 13.0804 13.5002C13.189 13.3697 13.3126 13.2522 13.4419 13.1272C13.5299 13.0433 13.6198 12.9557 13.706 12.8661C14.1049 12.4521 14.1049 11.9262 13.7022 11.5253L12.5766 10.4045C12.3855 10.2068 12.157 10.1024 11.9173 10.1024C11.6776 10.1024 11.4472 10.2068 11.2505 10.4026L10.58 11.0702C10.5182 11.0348 10.4545 11.0031 10.3946 10.9733C10.3197 10.936 10.2504 10.9005 10.1886 10.8614C9.57798 10.4753 9.02359 9.97182 8.49355 9.3247C8.22572 8.98715 8.04592 8.70369 7.92043 8.41463C8.09649 8.25611 8.26131 8.09014 8.42051 7.92789C8.4767 7.87008 8.53476 7.81227 8.59282 7.75445C8.7951 7.55305 8.90373 7.31993 8.90373 7.08309C8.90373 6.84625 8.79697 6.61314 8.59282 6.41173L8.03468 5.85599C7.96913 5.79072 7.90732 5.72731 7.84364 5.66204C7.72003 5.53523 7.59079 5.40468 7.46343 5.28719C7.27052 5.09884 7.04389 5 6.80416 5C6.56629 5 6.33779 5.09884 6.13739 5.28906L5.43691 5.98653C5.18219 6.24016 5.03797 6.54787 5.008 6.90406C4.97242 7.34977 5.05483 7.82346 5.26834 8.39598C5.59611 9.28181 6.09057 10.1042 6.82476 10.9826Z" fill="white"/>
<defs>
<linearGradient id="paint0_linear_7003_172" x1="2.47678" y1="0.754716" x2="23.93" y2="22.1622" gradientUnits="userSpaceOnUse">
<stop stop-color="#008DC3"/>
<stop offset="1" stop-color="#004268"/>
</linearGradient>
</defs>
</svg>
