<svg width="35" height="115" viewBox="0 0 35 115" fill="none" xmlns="http://www.w3.org/2000/svg">
<mask id="path-1-outside-1_6874_104" maskUnits="userSpaceOnUse" x="-0.700195" y="-0.550049" width="35" height="115" fill="black">
<rect fill="white" x="-0.700195" y="-0.550049" width="35" height="115"/>
<path d="M2.99981 15.4499V2.99994H31.1998V111.45H17.3998V15.4499H2.99981Z"/>
</mask>
<path d="M2.9998 15.4499H-0.000195026V18.4499H2.9998V15.4499ZM2.9998 2.99995V-5.34058e-05H-0.000195026V2.99995H2.9998ZM31.1998 2.99995H34.1998V-5.34058e-05H31.1998V2.99995ZM31.1998 111.45V114.45H34.1998V111.45H31.1998ZM17.3998 111.45H14.3998V114.45H17.3998V111.45ZM17.3998 15.4499H20.3998V12.4499H17.3998V15.4499ZM2.9998 15.4499H5.99981V2.99995H2.9998H-0.000195026V15.4499H2.9998ZM2.9998 2.99995V5.99995H31.1998V2.99995V-5.34058e-05H2.9998V2.99995ZM31.1998 2.99995H28.1998V111.45H31.1998H34.1998V2.99995H31.1998ZM31.1998 111.45V108.45H17.3998V111.45V114.45H31.1998V111.45ZM17.3998 111.45H20.3998V15.4499H17.3998H14.3998V111.45H17.3998ZM17.3998 15.4499V12.4499H2.9998V15.4499V18.4499H17.3998V15.4499Z" fill="white" mask="url(#path-1-outside-1_6874_104)"/>
</svg>
