<svg width="67" height="67" viewBox="0 0 67 67" fill="none" xmlns="http://www.w3.org/2000/svg">
<g filter="url(#filter0_dd_7048_84)">
<path d="M12 23.5C12 11.6259 21.6259 2 33.5 2V2C45.3741 2 55 11.6259 55 23.5V23.5C55 35.3741 45.3741 45 33.5 45V45C21.6259 45 12 35.3741 12 23.5V23.5Z" fill="url(#paint0_linear_7048_84)" fill-opacity="0.8" shape-rendering="crispEdges"/>
<path d="M36 30.5L32.48 30.64C32.48 30.4267 32.46 30.06 32.42 29.54C32.3933 29.02 32.3467 28.3933 32.28 27.66C32.2133 26.9267 32.1267 26.1333 32.02 25.28C31.9267 24.4133 31.8133 23.5267 31.68 22.62C31.5467 21.7133 31.4 20.8267 31.24 19.96C31.08 19.0933 30.9 18.3 30.7 17.58L34.22 16.66C34.5 17.54 34.74 18.4933 34.94 19.52C35.14 20.5467 35.3067 21.5867 35.44 22.64C35.5867 23.6933 35.7 24.7133 35.78 25.7C35.86 26.6867 35.9133 27.5933 35.94 28.42C35.98 29.2467 36 29.94 36 30.5Z" fill="white"/>
</g>
<defs>
<filter id="filter0_dd_7048_84" x="0" y="0" width="67" height="67" filterUnits="userSpaceOnUse" color-interpolation-filters="sRGB">
<feFlood flood-opacity="0" result="BackgroundImageFix"/>
<feColorMatrix in="SourceAlpha" type="matrix" values="0 0 0 0 0 0 0 0 0 0 0 0 0 0 0 0 0 0 127 0" result="hardAlpha"/>
<feMorphology radius="4" operator="erode" in="SourceAlpha" result="effect1_dropShadow_7048_84"/>
<feOffset dy="4"/>
<feGaussianBlur stdDeviation="3"/>
<feComposite in2="hardAlpha" operator="out"/>
<feColorMatrix type="matrix" values="0 0 0 0 0 0 0 0 0 0 0 0 0 0 0 0 0 0 0.1 0"/>
<feBlend mode="normal" in2="BackgroundImageFix" result="effect1_dropShadow_7048_84"/>
<feColorMatrix in="SourceAlpha" type="matrix" values="0 0 0 0 0 0 0 0 0 0 0 0 0 0 0 0 0 0 127 0" result="hardAlpha"/>
<feMorphology radius="3" operator="erode" in="SourceAlpha" result="effect2_dropShadow_7048_84"/>
<feOffset dy="10"/>
<feGaussianBlur stdDeviation="7.5"/>
<feComposite in2="hardAlpha" operator="out"/>
<feColorMatrix type="matrix" values="0 0 0 0 0 0 0 0 0 0 0 0 0 0 0 0 0 0 0.1 0"/>
<feBlend mode="normal" in2="effect1_dropShadow_7048_84" result="effect2_dropShadow_7048_84"/>
<feBlend mode="normal" in="SourceGraphic" in2="effect2_dropShadow_7048_84" result="shape"/>
</filter>
<linearGradient id="paint0_linear_7048_84" x1="17.3251" y1="3.62264" x2="63.4495" y2="49.6488" gradientUnits="userSpaceOnUse">
<stop stop-color="#008DC3"/>
<stop offset="1" stop-color="#004268"/>
</linearGradient>
</defs>
</svg>
