<svg width="67" height="67" viewBox="0 0 67 67" fill="none" xmlns="http://www.w3.org/2000/svg">
<g filter="url(#filter0_dd_7048_88)">
<path d="M12 23.5C12 11.6259 21.6259 2 33.5 2V2C45.3741 2 55 11.6259 55 23.5V23.5C55 35.3741 45.3741 45 33.5 45V45C21.6259 45 12 35.3741 12 23.5V23.5Z" fill="url(#paint0_linear_7048_88)" fill-opacity="0.8" shape-rendering="crispEdges"/>
<path d="M32.42 30.5L28.98 30.64C28.98 30.4267 28.96 30.06 28.92 29.54C28.8933 29.02 28.8467 28.3933 28.78 27.66C28.7133 26.9267 28.6267 26.1333 28.52 25.28C28.4267 24.4133 28.3133 23.5267 28.18 22.62C28.0467 21.7133 27.9 20.8267 27.74 19.96C27.58 19.0933 27.4 18.3 27.2 17.58L30.64 16.66C30.92 17.54 31.16 18.4933 31.36 19.52C31.56 20.5467 31.7267 21.5867 31.86 22.64C32.0067 23.6933 32.12 24.7133 32.2 25.7C32.28 26.6867 32.3333 27.5933 32.36 28.42C32.4 29.2467 32.42 29.94 32.42 30.5ZM32.5 22.48C32.1133 22.48 31.7867 22.4 31.52 22.24C31.2667 22.08 31.0667 21.8867 30.92 21.66C30.7867 21.42 30.7 21.1867 30.66 20.96L30.64 16.66L31.4 18.96C31.4133 19 31.4467 19.0533 31.5 19.12C31.5533 19.1867 31.6267 19.2533 31.72 19.32C31.8133 19.3733 31.92 19.4 32.04 19.4C32.1867 19.4 32.3133 19.3467 32.42 19.24C32.5267 19.1333 32.62 18.9333 32.7 18.64C32.78 18.3333 32.8533 17.9067 32.92 17.36L35.42 17.66C35.3933 17.8467 35.3667 18.0133 35.34 18.16C35.3267 18.3067 35.3133 18.4267 35.3 18.52C35.3 18.6133 35.3 18.6933 35.3 18.76C35.3 18.9867 35.3667 19.14 35.5 19.22C35.6467 19.2867 35.8067 19.32 35.98 19.32C36.1933 19.32 36.3533 19.2867 36.46 19.22C36.5667 19.1533 36.6333 19.0667 36.66 18.96C36.7 18.8533 36.72 18.74 36.72 18.62C36.72 18.4467 36.7 18.2733 36.66 18.1C36.6333 17.9133 36.5867 17.7267 36.52 17.54L39.1 16.82C39.3133 17.38 39.4533 17.86 39.52 18.26C39.5867 18.66 39.62 19 39.62 19.28C39.62 19.9067 39.4933 20.46 39.24 20.94C38.9867 21.4067 38.6267 21.7667 38.16 22.02C37.6933 22.2733 37.1333 22.4 36.48 22.4C35.7333 22.4 35.1733 22.24 34.8 21.92C34.4267 21.6 34.1933 21.2133 34.1 20.76H34.5C34.3267 21.32 34.0733 21.7467 33.74 22.04C33.4067 22.3333 32.9933 22.48 32.5 22.48Z" fill="white"/>
</g>
<defs>
<filter id="filter0_dd_7048_88" x="0" y="0" width="67" height="67" filterUnits="userSpaceOnUse" color-interpolation-filters="sRGB">
<feFlood flood-opacity="0" result="BackgroundImageFix"/>
<feColorMatrix in="SourceAlpha" type="matrix" values="0 0 0 0 0 0 0 0 0 0 0 0 0 0 0 0 0 0 127 0" result="hardAlpha"/>
<feMorphology radius="4" operator="erode" in="SourceAlpha" result="effect1_dropShadow_7048_88"/>
<feOffset dy="4"/>
<feGaussianBlur stdDeviation="3"/>
<feComposite in2="hardAlpha" operator="out"/>
<feColorMatrix type="matrix" values="0 0 0 0 0 0 0 0 0 0 0 0 0 0 0 0 0 0 0.1 0"/>
<feBlend mode="normal" in2="BackgroundImageFix" result="effect1_dropShadow_7048_88"/>
<feColorMatrix in="SourceAlpha" type="matrix" values="0 0 0 0 0 0 0 0 0 0 0 0 0 0 0 0 0 0 127 0" result="hardAlpha"/>
<feMorphology radius="3" operator="erode" in="SourceAlpha" result="effect2_dropShadow_7048_88"/>
<feOffset dy="10"/>
<feGaussianBlur stdDeviation="7.5"/>
<feComposite in2="hardAlpha" operator="out"/>
<feColorMatrix type="matrix" values="0 0 0 0 0 0 0 0 0 0 0 0 0 0 0 0 0 0 0.1 0"/>
<feBlend mode="normal" in2="effect1_dropShadow_7048_88" result="effect2_dropShadow_7048_88"/>
<feBlend mode="normal" in="SourceGraphic" in2="effect2_dropShadow_7048_88" result="shape"/>
</filter>
<linearGradient id="paint0_linear_7048_88" x1="17.3251" y1="3.62264" x2="63.4495" y2="49.6488" gradientUnits="userSpaceOnUse">
<stop stop-color="#008DC3"/>
<stop offset="1" stop-color="#004268"/>
</linearGradient>
</defs>
</svg>
