<svg width="67" height="67" viewBox="0 0 67 67" fill="none" xmlns="http://www.w3.org/2000/svg">
<g filter="url(#filter0_dd_7048_90)">
<path d="M12 23.5C12 11.6259 21.6259 2 33.5 2V2C45.3741 2 55 11.6259 55 23.5V23.5C55 35.3741 45.3741 45 33.5 45V45C21.6259 45 12 35.3741 12 23.5V23.5Z" fill="url(#paint0_linear_7048_90)" fill-opacity="0.8" shape-rendering="crispEdges"/>
<path d="M37.04 26.84L37.78 29.76C37.2867 30.04 36.7067 30.2533 36.04 30.4C35.3733 30.5467 34.7 30.62 34.02 30.62C32.86 30.62 31.8933 30.4533 31.12 30.12C30.3467 29.7867 29.7667 29.3533 29.38 28.82C28.9933 28.2867 28.8 27.7133 28.8 27.1C28.8 26.4733 28.98 25.9067 29.34 25.4C29.7133 24.8933 30.1667 24.4467 30.7 24.06C30.3 23.8467 29.9667 23.6 29.7 23.32C29.4467 23.04 29.2533 22.7467 29.12 22.44C28.9867 22.1333 28.92 21.84 28.92 21.56C28.92 21.28 28.98 20.9267 29.1 20.5C29.2333 20.06 29.4867 19.6067 29.86 19.14C30.2467 18.66 30.8133 18.1933 31.56 17.74C32.3067 17.2867 33.3 16.9 34.54 16.58L35.56 19.66C35.0533 19.7667 34.5867 19.9 34.16 20.06C33.7467 20.2067 33.3867 20.3667 33.08 20.54C32.7733 20.7133 32.5333 20.8933 32.36 21.08C32.2 21.2667 32.12 21.44 32.12 21.6C32.12 21.7333 32.1867 21.8533 32.32 21.96C32.4533 22.0667 32.6333 22.1533 32.86 22.22C33.1 22.2867 33.3667 22.32 33.66 22.32C33.9533 22.32 34.26 22.28 34.58 22.2L34.92 24.86C34.4933 25.02 34.08 25.1867 33.68 25.36C33.2933 25.5333 32.9733 25.72 32.72 25.92C32.48 26.1067 32.36 26.3267 32.36 26.58C32.36 26.78 32.4533 26.9467 32.64 27.08C32.84 27.2 33.08 27.2867 33.36 27.34C33.64 27.3933 33.9067 27.42 34.16 27.42C34.48 27.42 34.8133 27.3933 35.16 27.34C35.52 27.2733 35.8667 27.1933 36.2 27.1C36.5333 27.0067 36.8133 26.92 37.04 26.84Z" fill="white"/>
</g>
<defs>
<filter id="filter0_dd_7048_90" x="0" y="0" width="67" height="67" filterUnits="userSpaceOnUse" color-interpolation-filters="sRGB">
<feFlood flood-opacity="0" result="BackgroundImageFix"/>
<feColorMatrix in="SourceAlpha" type="matrix" values="0 0 0 0 0 0 0 0 0 0 0 0 0 0 0 0 0 0 127 0" result="hardAlpha"/>
<feMorphology radius="4" operator="erode" in="SourceAlpha" result="effect1_dropShadow_7048_90"/>
<feOffset dy="4"/>
<feGaussianBlur stdDeviation="3"/>
<feComposite in2="hardAlpha" operator="out"/>
<feColorMatrix type="matrix" values="0 0 0 0 0 0 0 0 0 0 0 0 0 0 0 0 0 0 0.1 0"/>
<feBlend mode="normal" in2="BackgroundImageFix" result="effect1_dropShadow_7048_90"/>
<feColorMatrix in="SourceAlpha" type="matrix" values="0 0 0 0 0 0 0 0 0 0 0 0 0 0 0 0 0 0 127 0" result="hardAlpha"/>
<feMorphology radius="3" operator="erode" in="SourceAlpha" result="effect2_dropShadow_7048_90"/>
<feOffset dy="10"/>
<feGaussianBlur stdDeviation="7.5"/>
<feComposite in2="hardAlpha" operator="out"/>
<feColorMatrix type="matrix" values="0 0 0 0 0 0 0 0 0 0 0 0 0 0 0 0 0 0 0.1 0"/>
<feBlend mode="normal" in2="effect1_dropShadow_7048_90" result="effect2_dropShadow_7048_90"/>
<feBlend mode="normal" in="SourceGraphic" in2="effect2_dropShadow_7048_90" result="shape"/>
</filter>
<linearGradient id="paint0_linear_7048_90" x1="17.3251" y1="3.62264" x2="63.4495" y2="49.6488" gradientUnits="userSpaceOnUse">
<stop stop-color="#008DC3"/>
<stop offset="1" stop-color="#004268"/>
</linearGradient>
</defs>
</svg>
