<svg width="67" height="67" viewBox="0 0 67 67" fill="none" xmlns="http://www.w3.org/2000/svg">
<g filter="url(#filter0_dd_7048_86)">
<path d="M12 23.5C12 11.6259 21.6259 2 33.5 2V2C45.3741 2 55 11.6259 55 23.5V23.5C55 35.3741 45.3741 45 33.5 45V45C21.6259 45 12 35.3741 12 23.5V23.5Z" fill="url(#paint0_linear_7048_86)" fill-opacity="0.8" shape-rendering="crispEdges"/>
<path d="M33.42 30.5L29.98 30.64C29.98 30.4267 29.96 30.06 29.92 29.54C29.8933 29.02 29.8467 28.3933 29.78 27.66C29.7133 26.9267 29.6267 26.1333 29.52 25.28C29.4267 24.4133 29.3133 23.5267 29.18 22.62C29.0467 21.7133 28.9 20.8267 28.74 19.96C28.58 19.0933 28.4 18.3 28.2 17.58L31.64 16.66C31.92 17.54 32.16 18.4933 32.36 19.52C32.56 20.5467 32.7267 21.5867 32.86 22.64C33.0067 23.6933 33.12 24.7133 33.2 25.7C33.28 26.6867 33.3333 27.5933 33.36 28.42C33.4 29.2467 33.42 29.94 33.42 30.5ZM33.8 22.4C33.4 22.4 33.02 22.3733 32.66 22.32C32.3133 22.2533 31.8867 22.14 31.38 21.98V18.8C31.7667 18.9333 32.1667 19.0333 32.58 19.1C33.0067 19.1533 33.36 19.18 33.64 19.18C34 19.18 34.3 19.1333 34.54 19.04C34.78 18.9467 34.9733 18.8067 35.12 18.62C35.2667 18.4333 35.38 18.2 35.46 17.92C35.54 17.64 35.6 17.3067 35.64 16.92L38.72 17.34C38.6133 18.4467 38.3867 19.38 38.04 20.14C37.6933 20.8867 37.18 21.4533 36.5 21.84C35.82 22.2133 34.92 22.4 33.8 22.4Z" fill="white"/>
</g>
<defs>
<filter id="filter0_dd_7048_86" x="0" y="0" width="67" height="67" filterUnits="userSpaceOnUse" color-interpolation-filters="sRGB">
<feFlood flood-opacity="0" result="BackgroundImageFix"/>
<feColorMatrix in="SourceAlpha" type="matrix" values="0 0 0 0 0 0 0 0 0 0 0 0 0 0 0 0 0 0 127 0" result="hardAlpha"/>
<feMorphology radius="4" operator="erode" in="SourceAlpha" result="effect1_dropShadow_7048_86"/>
<feOffset dy="4"/>
<feGaussianBlur stdDeviation="3"/>
<feComposite in2="hardAlpha" operator="out"/>
<feColorMatrix type="matrix" values="0 0 0 0 0 0 0 0 0 0 0 0 0 0 0 0 0 0 0.1 0"/>
<feBlend mode="normal" in2="BackgroundImageFix" result="effect1_dropShadow_7048_86"/>
<feColorMatrix in="SourceAlpha" type="matrix" values="0 0 0 0 0 0 0 0 0 0 0 0 0 0 0 0 0 0 127 0" result="hardAlpha"/>
<feMorphology radius="3" operator="erode" in="SourceAlpha" result="effect2_dropShadow_7048_86"/>
<feOffset dy="10"/>
<feGaussianBlur stdDeviation="7.5"/>
<feComposite in2="hardAlpha" operator="out"/>
<feColorMatrix type="matrix" values="0 0 0 0 0 0 0 0 0 0 0 0 0 0 0 0 0 0 0.1 0"/>
<feBlend mode="normal" in2="effect1_dropShadow_7048_86" result="effect2_dropShadow_7048_86"/>
<feBlend mode="normal" in="SourceGraphic" in2="effect2_dropShadow_7048_86" result="shape"/>
</filter>
<linearGradient id="paint0_linear_7048_86" x1="17.3251" y1="3.62264" x2="63.4495" y2="49.6488" gradientUnits="userSpaceOnUse">
<stop stop-color="#008DC3"/>
<stop offset="1" stop-color="#004268"/>
</linearGradient>
</defs>
</svg>
