<svg width="67" height="71" viewBox="0 0 67 71" fill="none" xmlns="http://www.w3.org/2000/svg">
<path d="M66.4925 40.6431L60.5903 31.6777C60.2915 31.1547 60.142 30.557 60.0673 29.9593C59.0961 18.0802 49.2341 8.89062 37.2055 8.89062C36.6825 8.89062 36.0848 8.89063 35.5619 8.96534C36.4584 11.2814 36.9814 13.8216 36.9814 16.4365C36.9814 27.718 27.7171 36.9822 16.3609 36.9822C15.7633 36.9822 15.1656 36.9822 14.6426 36.9075C15.838 42.6603 19.0506 48.0396 23.4586 51.7752C24.131 52.3729 24.5045 53.1947 24.5045 54.0165V67.1658C24.5045 68.2118 25.3264 69.1083 26.3723 69.183L46.1709 70.9014C47.3663 70.9761 48.4123 70.0795 48.4123 68.8842V59.6199C48.4123 59.0222 48.9353 58.4992 49.533 58.4992H56.4812C58.6478 58.4992 60.3662 56.7809 60.3662 54.6142V45.35C60.3662 44.9017 60.7397 44.6028 61.1133 44.6028H64.4753C66.4178 44.6028 67.6132 42.3615 66.4925 40.6431ZM52.5961 35.0397C50.8031 35.0397 49.3088 33.5455 49.3088 31.7524C49.3088 29.9593 50.8031 28.4651 52.5961 28.4651C54.4639 28.4651 55.8835 29.9593 55.8835 31.7524C55.8835 33.5455 54.3892 35.0397 52.5961 35.0397Z" fill="url(#paint0_linear_6468_605)" fill-opacity="0.8"/>
<path d="M32.7985 16.3619C32.7985 7.32175 25.4767 0 16.4366 0C7.32175 0 0 7.32175 0 16.3619C0 25.402 7.32175 32.7237 16.3619 32.7237C25.4767 32.7985 32.7985 25.4767 32.7985 16.3619ZM9.33897 17.7814C7.99416 16.4366 7.47117 14.3447 8.36772 12.701C9.78724 9.86195 13.3734 9.48839 15.3906 11.5056L16.3619 12.4769L17.2584 11.5803C18.6032 10.2355 20.6952 9.71253 22.3388 10.6091C25.1779 12.0286 25.5514 15.6148 23.5342 17.632L16.9596 24.2813C16.6607 24.5802 16.1377 24.5802 15.8389 24.2813L9.33897 17.7814Z" fill="url(#paint1_linear_6468_605)" fill-opacity="0.8"/>
<defs>
<linearGradient id="paint0_linear_6468_605" x1="21.1172" y1="11.2308" x2="86.6569" y2="66.3668" gradientUnits="userSpaceOnUse">
<stop stop-color="#008DC3"/>
<stop offset="1" stop-color="#004268"/>
</linearGradient>
<linearGradient id="paint1_linear_6468_605" x1="4.06173" y1="1.23488" x2="39.1639" y2="36.3417" gradientUnits="userSpaceOnUse">
<stop stop-color="#008DC3"/>
<stop offset="1" stop-color="#004268"/>
</linearGradient>
</defs>
</svg>
