<svg width="60" height="60" viewBox="0 0 60 60" fill="none" xmlns="http://www.w3.org/2000/svg">
<path d="M46 16C50.4183 16 54 12.4183 54 8C54 3.58172 50.4183 0 46 0C41.5817 0 38 3.58172 38 8C38 12.4183 41.5817 16 46 16Z" fill="url(#paint0_linear_6468_604)" fill-opacity="0.8"/>
<path d="M14 16C18.4183 16 22 12.4183 22 8C22 3.58172 18.4183 0 14 0C9.58172 0 6 3.58172 6 8C6 12.4183 9.58172 16 14 16Z" fill="url(#paint1_linear_6468_604)" fill-opacity="0.8"/>
<path d="M37 43.1001C33.1 46.9001 26.8 46.9001 23 43.1001C18.8 45.1001 16 49.3001 16 54.0001V60.0001H44V54.0001C44 49.3001 41.3 45.1001 37 43.1001Z" fill="url(#paint2_linear_6468_604)" fill-opacity="0.8"/>
<path d="M30 44C34.4183 44 38 40.4183 38 36C38 31.5817 34.4183 28 30 28C25.5817 28 22 31.5817 22 36C22 40.4183 25.5817 44 30 44Z" fill="url(#paint3_linear_6468_604)" fill-opacity="0.8"/>
<path d="M53 15.1001C49.1 18.9001 42.8 18.9001 39 15.1001C34.8 17.1001 32 21.3001 32 26.0001V26.2001C35.2 26.9001 37.9 29.0001 39.2 32.0001H60V26.0001C60 21.3001 57.3 17.1001 53 15.1001Z" fill="url(#paint4_linear_6468_604)" fill-opacity="0.8"/>
<path d="M28 26.2001V26.0001C28 21.3001 25.3 17.1001 21 15.1001C17.1 18.9001 10.8 18.9001 7 15.1001C2.8 17.1001 0 21.3001 0 26.0001V32.0001H20.8C22.1 29.0001 24.8 26.9001 28 26.2001Z" fill="url(#paint5_linear_6468_604)" fill-opacity="0.8"/>
<path d="M6.2 37.6L8 37L4 34L2 39L4.3 38.2C5.9 43.4 9.1 47.9 13.4 51.2L14.6 49.6C10.6 46.6 7.7 42.4 6.2 37.6Z" fill="url(#paint6_linear_6468_604)" fill-opacity="0.8"/>
<path d="M56.7 34.1999L54.7 33.8999C54 38.6999 51.9 43.0999 48.6 46.6999L47 44.9999L46 49.9999H52L50.1 48.0999C53.6 44.1999 55.9 39.2999 56.7 34.1999Z" fill="url(#paint7_linear_6468_604)" fill-opacity="0.8"/>
<path d="M36.0008 5L32.0008 1L31.7008 3.1C29.1008 2.9 26.4008 3.2 23.8008 3.8L24.3008 5.7C26.6008 5.2 29.0008 5 31.4008 5.1L31.0008 7L36.0008 5Z" fill="url(#paint8_linear_6468_604)" fill-opacity="0.8"/>
<defs>
<linearGradient id="paint0_linear_6468_604" x1="39.9814" y1="0.603773" x2="57.144" y2="17.7298" gradientUnits="userSpaceOnUse">
<stop stop-color="#008DC3"/>
<stop offset="1" stop-color="#004268"/>
</linearGradient>
<linearGradient id="paint1_linear_6468_604" x1="7.98142" y1="0.603773" x2="25.144" y2="17.7298" gradientUnits="userSpaceOnUse">
<stop stop-color="#008DC3"/>
<stop offset="1" stop-color="#004268"/>
</linearGradient>
<linearGradient id="paint2_linear_6468_604" x1="19.4675" y1="43.7378" x2="35.5232" y2="70.2824" gradientUnits="userSpaceOnUse">
<stop stop-color="#008DC3"/>
<stop offset="1" stop-color="#004268"/>
</linearGradient>
<linearGradient id="paint3_linear_6468_604" x1="23.9814" y1="28.6038" x2="41.144" y2="45.7298" gradientUnits="userSpaceOnUse">
<stop stop-color="#008DC3"/>
<stop offset="1" stop-color="#004268"/>
</linearGradient>
<linearGradient id="paint4_linear_6468_604" x1="35.4675" y1="15.7378" x2="51.5232" y2="42.2824" gradientUnits="userSpaceOnUse">
<stop stop-color="#008DC3"/>
<stop offset="1" stop-color="#004268"/>
</linearGradient>
<linearGradient id="paint5_linear_6468_604" x1="3.46749" y1="15.7378" x2="19.5232" y2="42.2824" gradientUnits="userSpaceOnUse">
<stop stop-color="#008DC3"/>
<stop offset="1" stop-color="#004268"/>
</linearGradient>
<linearGradient id="paint6_linear_6468_604" x1="3.56037" y1="34.6491" x2="21.1401" y2="47.4998" gradientUnits="userSpaceOnUse">
<stop stop-color="#008DC3"/>
<stop offset="1" stop-color="#004268"/>
</linearGradient>
<linearGradient id="paint7_linear_6468_604" x1="47.3251" y1="34.5074" x2="63.2342" y2="45.0581" gradientUnits="userSpaceOnUse">
<stop stop-color="#008DC3"/>
<stop offset="1" stop-color="#004268"/>
</linearGradient>
<linearGradient id="paint8_linear_6468_604" x1="25.3116" y1="1.22641" x2="30.4158" y2="11.5828" gradientUnits="userSpaceOnUse">
<stop stop-color="#008DC3"/>
<stop offset="1" stop-color="#004268"/>
</linearGradient>
</defs>
</svg>
