<svg width="49" height="39" viewBox="0 0 49 39" fill="none" xmlns="http://www.w3.org/2000/svg">
<path d="M34.5 38.5V34.5C34.5 32.3783 33.6571 30.3434 32.1569 28.8431C30.6566 27.3429 28.6217 26.5 26.5 26.5H10.5C8.37827 26.5 6.34344 27.3429 4.84315 28.8431C3.34285 30.3434 2.5 32.3783 2.5 34.5V38.5" stroke="url(#paint0_linear_6448_156)" stroke-opacity="0.8" stroke-width="5"/>
<path d="M18.5 18.5C22.9183 18.5 26.5 14.9183 26.5 10.5C26.5 6.08172 22.9183 2.5 18.5 2.5C14.0817 2.5 10.5 6.08172 10.5 10.5C10.5 14.9183 14.0817 18.5 18.5 18.5Z" stroke="url(#paint1_linear_6448_156)" stroke-opacity="0.8" stroke-width="5"/>
<path d="M46.5 38.5V34.5C46.4987 32.7275 45.9087 31.0056 44.8227 29.6046C43.7368 28.2037 42.2163 27.2031 40.5 26.76" stroke="url(#paint2_linear_6448_156)" stroke-opacity="0.8" stroke-width="5"/>
<path d="M32.5 2.76001C34.2208 3.20061 35.7461 4.20141 36.8353 5.60463C37.9245 7.00785 38.5157 8.73367 38.5157 10.51C38.5157 12.2864 37.9245 14.0122 36.8353 15.4154C35.7461 16.8186 34.2208 17.8194 32.5 18.26" stroke="url(#paint3_linear_6448_156)" stroke-opacity="0.8" stroke-width="5"/>
<defs>
<linearGradient id="paint0_linear_6448_156" x1="6.46285" y1="26.9528" x2="14.9402" y2="49.511" gradientUnits="userSpaceOnUse">
<stop stop-color="#008DC3"/>
<stop offset="1" stop-color="#004268"/>
</linearGradient>
<linearGradient id="paint1_linear_6448_156" x1="12.4814" y1="3.10377" x2="29.644" y2="20.2298" gradientUnits="userSpaceOnUse">
<stop stop-color="#008DC3"/>
<stop offset="1" stop-color="#004268"/>
</linearGradient>
<linearGradient id="paint2_linear_6448_156" x1="41.243" y1="27.203" x2="51.4364" y2="32.4015" gradientUnits="userSpaceOnUse">
<stop stop-color="#008DC3"/>
<stop offset="1" stop-color="#004268"/>
</linearGradient>
<linearGradient id="paint3_linear_6448_156" x1="33.245" y1="3.34491" x2="44.4435" y2="7.68189" gradientUnits="userSpaceOnUse">
<stop stop-color="#008DC3"/>
<stop offset="1" stop-color="#004268"/>
</linearGradient>
</defs>
</svg>
