<svg width="88" height="88" viewBox="0 0 88 88" fill="none" xmlns="http://www.w3.org/2000/svg">
<g filter="url(#filter0_dd_7048_99)">
<path d="M12 34C12 16.3269 26.3269 2 44 2V2C61.6731 2 76 16.3269 76 34V34C76 51.6731 61.6731 66 44 66V66C26.3269 66 12 51.6731 12 34V34Z" fill="url(#paint0_linear_7048_99)" fill-opacity="0.8" shape-rendering="crispEdges"/>
<path d="M32.84 41.92V38.48L46.28 19.2H51.8V37.96H55.52V41.92H51.8V48H47.32V41.92H32.84ZM47.52 23.84L38.08 37.96H47.52V23.84Z" fill="#DBECF7"/>
</g>
<defs>
<filter id="filter0_dd_7048_99" x="0" y="0" width="88" height="88" filterUnits="userSpaceOnUse" color-interpolation-filters="sRGB">
<feFlood flood-opacity="0" result="BackgroundImageFix"/>
<feColorMatrix in="SourceAlpha" type="matrix" values="0 0 0 0 0 0 0 0 0 0 0 0 0 0 0 0 0 0 127 0" result="hardAlpha"/>
<feMorphology radius="4" operator="erode" in="SourceAlpha" result="effect1_dropShadow_7048_99"/>
<feOffset dy="4"/>
<feGaussianBlur stdDeviation="3"/>
<feComposite in2="hardAlpha" operator="out"/>
<feColorMatrix type="matrix" values="0 0 0 0 0 0 0 0 0 0 0 0 0 0 0 0 0 0 0.1 0"/>
<feBlend mode="normal" in2="BackgroundImageFix" result="effect1_dropShadow_7048_99"/>
<feColorMatrix in="SourceAlpha" type="matrix" values="0 0 0 0 0 0 0 0 0 0 0 0 0 0 0 0 0 0 127 0" result="hardAlpha"/>
<feMorphology radius="3" operator="erode" in="SourceAlpha" result="effect2_dropShadow_7048_99"/>
<feOffset dy="10"/>
<feGaussianBlur stdDeviation="7.5"/>
<feComposite in2="hardAlpha" operator="out"/>
<feColorMatrix type="matrix" values="0 0 0 0 0 0 0 0 0 0 0 0 0 0 0 0 0 0 0.1 0"/>
<feBlend mode="normal" in2="effect1_dropShadow_7048_99" result="effect2_dropShadow_7048_99"/>
<feBlend mode="normal" in="SourceGraphic" in2="effect2_dropShadow_7048_99" result="shape"/>
</filter>
<linearGradient id="paint0_linear_7048_99" x1="19.9257" y1="4.41509" x2="88.576" y2="72.9192" gradientUnits="userSpaceOnUse">
<stop stop-color="#008DC3"/>
<stop offset="1" stop-color="#004268"/>
</linearGradient>
</defs>
</svg>
